<svg width="104" height="41" viewBox="0 0 104 41" fill="none" xmlns="http://www.w3.org/2000/svg">
<path d="M12.6445 8.99333C12.2229 8.9081 11.7942 8.86487 11.3644 8.86423H6.53315C5.95583 8.86401 5.40224 8.63046 4.99416 8.21494C4.58608 7.79943 4.35694 7.23599 4.35716 6.64858C4.35737 6.06117 4.58692 5.49791 4.9953 5.08271C5.40368 4.6675 5.95745 4.43437 6.53477 4.43458H16.3645V0H6.53477C4.91273 0.000148022 3.34871 0.614021 2.14679 1.72226C0.944872 2.83051 0.190954 4.35392 0.0316213 5.99631C-0.127712 7.63869 0.318926 9.28268 1.2847 10.6086C2.25047 11.9346 3.66635 12.8477 5.25705 13.1705C5.67866 13.2555 6.1074 13.2984 6.53719 13.2988H11.366C11.9434 13.2988 12.4972 13.5322 12.9055 13.9476C13.3138 14.3631 13.5432 14.9265 13.5432 15.514C13.5432 16.1016 13.3138 16.665 12.9055 17.0805C12.4972 17.4959 11.9434 17.7293 11.366 17.7293H1.53624V22.1639H11.366C12.9881 22.1639 14.5523 21.5502 15.7543 20.442C16.9564 19.3338 17.7105 17.8104 17.8699 16.168C18.0294 14.5255 17.5828 12.8814 16.617 11.5554C15.6512 10.2294 14.2353 9.31615 12.6445 8.99333Z" fill="#0A3C20"/>
<path d="M38.2654 12.2309C38.2654 13.6944 37.6916 15.098 36.6702 16.1328C35.6489 17.1677 34.2636 17.7491 32.8192 17.7491C31.3748 17.7491 29.9895 17.1677 28.9682 16.1328C27.9468 15.098 27.373 13.6944 27.373 12.2309V0H23.0161V12.2309C23.0161 13.5353 23.2697 14.8269 23.7623 16.0321C24.255 17.2372 24.9771 18.3322 25.8874 19.2546C26.7977 20.1769 27.8784 20.9086 29.0678 21.4078C30.2572 21.9069 31.532 22.1639 32.8194 22.1639C34.1067 22.1639 35.3815 21.9069 36.5709 21.4078C37.7603 20.9086 38.841 20.1769 39.7513 19.2546C40.6616 18.3322 41.3837 17.2372 41.8764 16.0321C42.369 14.8269 42.6226 13.5353 42.6226 12.2309V0H38.2655L38.2654 12.2309Z" fill="#0A3C20"/>
<path d="M61.8029 2.33001C60.7314 1.22853 59.3584 0.473435 57.8591 0.161003C56.3598 -0.151429 54.802 -0.00703543 53.3845 0.57577C51.967 1.15858 50.7539 2.15338 49.9 3.43335C49.0461 4.71331 48.59 6.22042 48.5898 7.7625V22.1639H52.9937V7.7625C52.9937 6.88012 53.3417 6.03388 53.9612 5.40994C54.5806 4.786 55.4208 4.43548 56.2969 4.43548C57.173 4.43548 58.0132 4.786 58.6327 5.40994C59.2522 6.03388 59.6002 6.88012 59.6002 7.7625V22.1639H64.0048V7.7625C64.0048 6.88001 64.3529 6.03367 64.9725 5.40965C65.592 4.78563 66.4323 4.43506 67.3085 4.43506C68.1847 4.43506 69.025 4.78563 69.6446 5.40965C70.2641 6.03367 70.6122 6.88001 70.6122 7.7625V22.1639H75.016V7.7625C75.0158 6.22043 74.5597 4.71335 73.7058 3.43342C72.8518 2.15348 71.6388 1.15869 70.2213 0.575896C68.8038 -0.00690309 67.246 -0.151306 65.7467 0.161103C64.2474 0.473512 62.8745 1.22857 61.8029 2.33001Z" fill="#0A3C20"/>
<path d="M81.9065 13.2829L85.1676 14.108C84.5667 12.7019 84.4484 11.1311 84.8318 9.64829C85.2153 8.16551 86.0781 6.85699 87.2816 5.93324C88.485 5.00949 89.9591 4.52422 91.4666 4.55549C92.9742 4.58676 94.4275 5.13276 95.5929 6.10565L94.3918 6.83958L96.3496 7.33535L96.8214 7.45444L100.038 8.26861L100.04 8.25932L100.774 5.26022L100.956 4.51784L101.442 2.52801L99.5709 3.67241C97.7601 1.67401 95.3064 0.399655 92.6527 0.0794062C89.999 -0.240843 87.3201 0.414119 85.0996 1.92605C82.8792 3.43797 81.2635 5.70724 80.5442 8.32419C79.825 10.9411 80.0495 13.7333 81.1774 16.1967L81.8909 13.2787L81.9065 13.2829Z" fill="#0A3C20"/>
<path d="M102.109 6.81964L101.399 9.5682L101.384 9.56419L98.1048 8.77752C98.7073 10.1106 98.827 11.6003 98.4447 13.0069C98.0624 14.4135 97.2003 15.6553 95.9971 16.5325C94.794 17.4097 93.3196 17.8713 91.8113 17.843C90.3029 17.8147 88.8483 17.2983 87.6814 16.3767L88.8915 15.6757L86.9325 15.2055L86.4421 15.0877L83.2422 14.3203L83.2397 14.3291L82.5017 17.189L82.3238 17.878L81.8359 19.7653L83.7002 18.6847C85.581 20.6548 88.1554 21.8796 90.9218 22.1202C93.6883 22.3609 96.4486 21.6002 98.665 19.9864V22.1638H103.147V11.3594C103.149 9.79136 102.794 8.24195 102.109 6.81964Z" fill="#0A3C20"/>
<path d="M94.6449 9.0183C94.0019 10.0276 93.3605 11.0389 92.7455 12.0746C92.5205 12.4533 92.3469 12.5597 91.9974 12.2805C91.3575 11.771 90.6795 11.3366 90.0233 10.8593C89.9467 10.7912 89.8564 10.7514 89.7628 10.7443C89.6691 10.7373 89.5757 10.7632 89.4931 10.8193C88.4998 11.445 87.4987 12.0502 86.5047 12.6729C86.2766 12.8154 85.9847 12.9726 86.1435 13.3865C86.303 13.8023 86.57 13.6129 86.8051 13.4665C87.6428 12.9443 88.4806 12.4227 89.3188 11.9018C89.4386 11.8276 89.5648 11.7661 89.6449 11.7222C89.8113 11.7356 89.9715 11.8069 90.1073 11.9281C90.8165 12.4269 91.5319 12.914 92.2271 13.4421C92.2745 13.4945 92.331 13.5325 92.3921 13.5529C92.4533 13.5733 92.5173 13.5758 92.5793 13.56C92.6413 13.5442 92.6995 13.5106 92.7494 13.4619C92.7993 13.4132 92.8395 13.3506 92.8669 13.2791C93.6368 12.0267 94.4239 10.7919 95.1961 9.54345C95.3611 9.27697 95.6585 8.9607 95.3206 8.63663C94.9867 8.31646 94.8115 8.75767 94.6449 9.0183Z" fill="#0A3C20"/>
<path d="M71.3076 38.1293H77.5808V36.6827H73.0537V33.8836H76.9597V32.4663H73.0537V29.6382H77.5808V28.2166H71.3076V38.1293Z" fill="#00893C"/>
<path d="M85.394 35.1071L78.7349 25.7038V38.1293H80.4556V31.3849L87.1325 40.9179V28.2169H85.394V35.1071Z" fill="#00893C"/>
<path d="M94.7008 35.3835C94.6991 35.1275 94.6773 34.872 94.6356 34.6195C94.5845 34.3265 94.4797 34.0455 94.3265 33.7906C94.1336 33.4735 93.8859 33.1931 93.5951 32.9626C93.1893 32.6425 92.7414 32.3799 92.264 32.1821C91.9279 32.0411 91.6176 31.9082 91.3306 31.7838C91.0693 31.6725 90.8165 31.5424 90.5743 31.3943C90.3841 31.2797 90.2123 31.137 90.0647 30.971C89.9424 30.8349 89.8753 30.6579 89.8767 30.4748C89.8732 30.3332 89.9039 30.1929 89.9662 30.0657C90.0285 29.9385 90.1206 29.8282 90.2345 29.7442C90.5574 29.5362 90.9392 29.4394 91.3221 29.4684C91.7267 29.4494 92.1261 29.565 92.4581 29.7972C92.7901 30.0293 93.0359 30.3649 93.1572 30.7515L94.6356 30.2807C94.3865 29.6037 93.9534 29.0097 93.385 28.5658C92.783 28.1413 92.058 27.9271 91.3221 27.9565C90.793 27.9412 90.266 28.0297 89.7709 28.217C89.3933 28.3634 89.0507 28.5876 88.7654 28.8751C88.5188 29.1267 88.3298 29.4289 88.2115 29.7608C88.1034 30.0577 88.046 30.3707 88.0417 30.6867C88.0393 30.9554 88.0858 31.2224 88.1789 31.4744C88.2894 31.7446 88.4556 31.9883 88.6668 32.1897C88.9522 32.4623 89.2715 32.6972 89.6167 32.8885C90.114 33.169 90.6296 33.4159 91.1599 33.6275C91.5168 33.7617 91.857 33.9366 92.1738 34.1487C92.3825 34.2875 92.5666 34.4602 92.7184 34.6598C92.8247 34.7991 92.9 34.9597 92.939 35.1306C92.964 35.2622 92.9778 35.3957 92.9801 35.5297C92.977 35.6649 92.9549 35.799 92.9145 35.928C92.8618 36.0897 92.7724 36.2369 92.6532 36.3581C92.5051 36.5119 92.325 36.6312 92.1255 36.7073C91.8476 36.8092 91.5524 36.856 91.2565 36.8451C91.0112 36.8399 90.7721 36.7668 90.5658 36.634C90.3249 36.4873 90.1041 36.3098 89.9089 36.106C89.7062 35.8981 89.5189 35.6756 89.3486 35.4403C89.2031 35.2466 89.0802 35.0369 88.9823 34.8152L87.7651 35.8221C87.9271 36.1675 88.1261 36.4943 88.3584 36.7967C88.5854 37.0953 88.853 37.3608 89.1534 37.5853C89.4501 37.8072 89.779 37.9824 90.1287 38.1048C90.4911 38.2316 90.8726 38.295 91.2565 38.2921C91.8301 38.3107 92.4009 38.2053 92.9302 37.9832C93.3328 37.8073 93.693 37.5469 93.9864 37.2196C94.232 36.9396 94.4195 36.6135 94.5378 36.2603C94.6369 35.9782 94.6919 35.6824 94.7008 35.3835Z" fill="#00893C"/>
<path d="M94.418 38.1293H96.2377C96.4104 37.7289 96.5969 37.2875 96.7972 36.805C96.9989 36.3234 97.1913 35.8711 97.3744 35.4482H101.012L102.165 38.1293H104L99.1934 27.177L94.418 38.1293ZM99.843 32.5726C99.93 32.7889 100.02 33.008 100.112 33.2303C100.202 33.4522 100.308 33.7099 100.427 34.0019H97.9589C98.175 33.4389 98.3879 32.9105 98.5924 32.4175C98.7969 31.9246 98.9981 31.4344 99.1934 30.9471C99.3334 31.3156 99.4553 31.6241 99.5588 31.8726C99.6627 32.1231 99.7565 32.3551 99.843 32.5726Z" fill="#00893C"/>
<path d="M60.7012 32.6806C60.6364 31.0479 59.9768 29.4953 58.8468 28.3157C58.7937 28.4534 58.6967 28.244 58.7003 28.2291C58.4427 28.3084 58.2793 27.8896 58.0519 27.9375C58.2435 28.0736 58.4628 28.1131 58.524 28.3157C58.1388 28.2673 57.498 27.7502 57.1124 27.7051C57.8043 28.1091 58.6041 28.6109 58.8774 29.393C58.9346 29.2859 59.1298 29.6806 59.1117 29.7426C58.1416 28.3628 55.9451 27.0474 53.6999 27.5593C53.7269 27.6467 53.5389 27.6628 53.4645 27.7349C53.5381 27.772 53.586 27.6487 53.6118 27.7349C52.6796 28.1022 51.6922 28.4156 51.0836 29.1014C51.0707 29.0519 51.1259 29.0273 51.0836 29.0148C50.9536 29.2951 50.5704 29.5308 50.5535 29.7426C50.6928 29.5598 50.886 29.277 51.0546 29.2186C50.9049 29.5666 50.5265 29.687 50.4645 30.12C50.2053 30.3769 50.1482 30.8336 49.936 31.1385C49.9735 31.0298 49.9743 30.8844 50.0536 30.8183C49.9489 30.3693 50.5064 30.0322 50.4645 29.7426C50.25 30.0422 50.0838 30.3914 49.8765 30.7027C49.8664 30.652 49.9199 30.6278 49.8765 30.6153C49.7215 30.8006 49.7022 31.1212 49.5822 31.3423C49.6064 31.035 49.7952 30.739 49.7585 30.4692C49.7163 30.5723 49.6949 30.6955 49.6128 30.7603C49.5947 30.7084 49.6986 30.6399 49.6128 30.6153C49.5025 30.961 49.3746 31.3008 49.2296 31.6335C49.255 31.3245 49.3243 31.0208 49.4353 30.7313C49.5094 30.5255 49.7018 30.2928 49.6414 30.12C49.5512 30.2778 49.4092 30.2738 49.4639 30.5276C49.2731 30.5038 49.4494 30.7096 49.3178 30.7027C49.3041 30.5388 49.5323 30.2718 49.4639 30.0624C49.4207 30.2275 49.3513 30.3845 49.2582 30.5276C49.2123 30.2134 49.4462 30.0161 49.4059 29.7426C49.257 29.9154 49.2679 30.2448 49.0549 30.3532C49.156 30.1794 49.2345 29.9935 49.2884 29.7998C49.1128 30.1058 48.9658 30.4273 48.8493 30.7603C48.9072 30.9524 48.778 31.1039 48.7301 31.0813C48.7233 31.2962 48.6629 31.506 48.5542 31.6915C48.3873 32.7352 48.478 33.804 48.8183 34.8047C48.4874 34.2187 48.4286 33.3911 48.3179 32.7104C48.3057 32.8882 48.3049 33.0666 48.3155 33.2445C48.333 33.5745 48.3869 33.9017 48.4761 34.2199C48.4653 34.2074 48.4512 34.198 48.4355 34.1929C48.6128 34.8641 48.9179 35.4948 49.3339 36.0504C49.6833 36.7218 50.1702 37.312 50.7628 37.7826C50.7643 37.7663 50.7614 37.7499 50.7543 37.7351C51.1512 38.0623 51.6 38.3207 52.0822 38.4995C51.5002 38.1201 50.7608 37.7258 50.3587 37.1857C51.1426 37.9068 52.0884 38.4286 53.1163 38.7069C53.3325 38.6857 53.5507 38.7177 53.7518 38.7999C53.7486 38.7472 53.9418 38.6928 54.0944 38.8257C54.449 38.8574 54.8057 38.8569 55.1602 38.8241C54.9602 38.7932 54.757 38.7879 54.5557 38.8084C54.7424 38.6598 55.0415 38.804 55.2621 38.742C55.0266 38.5921 54.7497 38.7214 54.4792 38.5502C54.6498 38.5271 54.8229 38.5294 54.9928 38.5571C54.8282 38.4093 54.4876 38.5051 54.3411 38.4258C54.3898 38.3054 54.5082 38.5482 54.5645 38.3654C54.7742 38.5208 54.8302 38.3912 55.0113 38.373C54.8781 38.2494 54.5834 38.3255 54.3641 38.3078C54.0519 38.289 53.7439 38.2262 53.4492 38.1213C53.7853 38.0742 54.1922 38.2063 54.544 38.1966C54.5569 38.1088 54.4506 38.1737 54.4092 38.137C54.5166 38.1066 54.6297 38.1022 54.7392 38.1241C54.5049 37.9808 54.1544 38.0291 53.8625 37.9232C54.1244 37.9581 54.3888 37.9696 54.6527 37.9574C54.6587 37.9135 54.6144 37.9526 54.5718 37.9224C54.9445 37.8656 55.3333 37.8591 55.6992 37.787C55.4476 37.63 54.9091 37.9936 54.5376 37.7149C54.4442 37.7593 54.3101 37.7005 54.195 37.6896C54.5633 37.6235 55.0081 37.7605 55.3506 37.632C55.6903 37.7294 55.929 37.5659 56.2056 37.4991C56.1556 37.5325 56.1041 37.5647 56.0534 37.5973C56.1609 37.5982 56.2531 37.5249 56.2804 37.5615C56.1032 37.625 55.921 37.6741 55.7358 37.7081C55.9268 37.7194 56.1175 37.681 56.2893 37.5965V37.5973C56.2977 37.5941 56.3074 37.5909 56.3171 37.5881C56.4158 37.5542 56.5187 37.5344 56.623 37.5293C56.6302 37.4894 56.5908 37.5168 56.5525 37.4983C56.9068 37.318 57.2508 37.1182 57.583 36.8998C57.5072 36.979 57.4256 37.0522 57.3386 37.1189C56.9297 37.4411 56.3899 37.6843 56.0542 37.9779H56.0562L56.055 37.9787C56.0796 37.9759 56.1086 37.9836 56.1122 38.0053C55.9596 38.0599 55.8121 38.1278 55.6714 38.2083C56.0429 38.16 56.3484 37.8885 56.6709 37.8885C56.5718 37.9562 56.2881 37.9936 56.3183 38.0923C56.7087 37.9554 57.1003 37.6646 57.4356 37.5688C57.1294 37.7989 56.8047 38.0032 56.4648 38.1797C57.0848 37.9052 57.6676 37.5532 58.1992 37.1322C58.1392 37.2462 57.981 37.2647 57.9364 37.3936C58.4151 37.0848 58.8417 36.7019 59.2002 36.259C58.8299 36.7786 58.3837 37.2395 57.8764 37.6263C58.0374 37.6014 58.0635 37.4427 58.2282 37.4226C57.6901 37.9036 57.0863 38.3055 56.435 38.6163C56.8322 38.4833 57.217 38.3156 57.585 38.1153L57.583 38.1213C57.6679 38.1358 57.7524 38.0017 57.7886 38.0637C57.2847 38.4862 56.5147 38.6461 55.8481 38.9071C56.5871 38.7751 57.3012 38.5298 57.9653 38.1797C58.0398 37.895 58.4564 37.9485 58.524 37.6549C58.5518 37.6426 58.5818 37.6362 58.6122 37.6362C58.6425 37.6362 58.6726 37.6426 58.7003 37.6549C58.7357 37.4552 59.253 37.253 59.0529 37.191C59.4609 36.7879 59.8073 36.3269 60.0809 35.8229C60.1047 35.7435 60.023 35.7653 60.023 35.7069C60.2713 35.5252 60.314 35.1406 60.4649 34.8623C60.355 34.8708 60.405 35.0363 60.3172 35.0673C60.5956 34.3034 60.7259 33.4934 60.7012 32.6806ZM48.4781 34.2235C48.4818 34.2288 48.4834 34.2344 48.4874 34.2401C48.4886 34.2429 48.4906 34.2437 48.4914 34.2457C48.494 34.2573 48.4952 34.2692 48.4951 34.2811C48.4898 34.2634 48.483 34.2429 48.4781 34.2235ZM50.1292 37.0516C50.2005 37.1041 50.2575 37.1736 50.2951 37.2538C50.2246 37.1918 50.1264 37.141 50.1292 37.0516ZM50.8976 35.4483C50.9039 35.4545 50.9122 35.4582 50.921 35.4588C50.8905 35.4033 50.8554 35.3504 50.8159 35.3009C50.7668 35.1981 50.7084 35.1 50.6416 35.0077C50.6296 35.0431 50.6714 35.085 50.6747 35.1176C50.548 34.9911 50.4753 34.8203 50.4718 34.6412L50.3792 34.6931C50.3252 34.5732 50.3041 34.441 50.318 34.3101C50.4211 34.5165 50.5426 34.7132 50.6811 34.8977C50.6894 34.9778 50.7175 35.0546 50.7628 35.1211C50.8081 35.1876 50.8693 35.2418 50.9407 35.2787C51.0169 35.4447 51.1087 35.603 51.2148 35.7516C51.0736 35.6958 50.9597 35.587 50.8976 35.4483ZM50.6968 34.7495C50.6899 34.776 50.6848 34.8029 50.6815 34.8301C50.6662 34.7934 50.6666 34.7656 50.6968 34.7495ZM51.1862 35.5148C51.1243 35.5671 51.0639 35.4539 51.0023 35.3218C51.1432 35.4106 51.273 35.5161 51.3887 35.636C51.2619 35.7181 51.2708 35.5671 51.1862 35.5148ZM51.3505 35.9392H51.3471L51.3475 35.9324C51.3491 35.9344 51.35 35.9367 51.3503 35.9392H51.3505ZM51.3084 35.9856L51.341 35.9529L51.3692 35.9582C51.3885 35.9848 51.4103 36.0113 51.4304 36.0379C51.3883 36.0239 51.3475 36.0064 51.3084 35.9856ZM51.6494 36.9026C51.742 36.963 51.9448 36.9832 51.9207 37.0875C51.8039 37.0367 51.6727 36.9888 51.6494 36.9026ZM53.5959 37.8684C53.666 37.9115 53.8048 37.8406 53.8221 37.9377C53.7529 37.8938 53.6132 37.9663 53.5959 37.8684ZM54.8807 37.3887C55.0739 37.4101 55.3311 37.2901 55.4712 37.3662C55.2881 37.3714 55.0228 37.4733 54.8807 37.3887ZM55.1524 37.2876C55.4125 37.2405 55.6737 37.1974 55.9317 37.1451C55.9059 37.1632 55.8802 37.1813 55.8568 37.1982C55.7147 37.1918 55.3798 37.3392 55.1524 37.2876ZM55.4531 36.9115C55.5445 36.9513 55.699 36.8595 55.7312 36.9401C55.6471 36.9139 55.4994 37.0271 55.4531 36.9115ZM56.2098 37.259C56.0497 37.2404 55.8876 37.2509 55.7312 37.2901C55.7063 37.2562 55.7691 37.2345 55.8286 37.2216C55.8049 37.2405 55.7791 37.259 55.759 37.2776C55.8669 37.2155 55.9884 37.1684 56.0971 37.1104C56.102 37.1098 56.1067 37.1084 56.1112 37.1064C56.1064 37.1676 55.9236 37.1833 56.0239 37.249C56.0534 37.1889 56.0967 37.1368 56.1503 37.0967C56.3129 37.0601 56.4736 37.0152 56.6317 36.9622C56.4912 37.0617 56.3511 37.1596 56.2098 37.259ZM56.4803 37.3219C56.4304 37.3027 56.379 37.2879 56.3266 37.2776C57.0125 36.9538 57.6287 36.4992 58.1407 35.9392C57.6732 36.4946 57.111 36.9627 56.4803 37.3219ZM56.9404 36.6859C57.0703 36.4998 57.2392 36.3443 57.4355 36.2304C57.3046 36.3961 57.1563 36.5472 56.9931 36.6811L56.9404 36.6859ZM58.6893 32.6899C58.6893 32.7938 58.6893 32.8969 58.6837 32.9976C58.6825 33.0165 58.6796 33.0338 58.6784 33.0532C58.6708 33.1555 58.6619 33.2578 58.647 33.3576C58.6467 33.3616 58.646 33.3655 58.645 33.3693C58.4509 34.6137 57.7781 35.7329 56.7705 36.4878H56.7717L56.7673 36.4918L56.7705 36.4878C56.7597 36.4938 56.7488 36.5027 56.7371 36.5107C56.7087 36.5313 56.6815 36.5534 56.6554 36.5768C56.6944 36.5474 56.7343 36.5184 56.7733 36.4878C56.7836 36.4828 56.7946 36.4795 56.8059 36.4781L56.81 36.4769C56.8169 36.4766 56.8238 36.4778 56.8303 36.4803C56.8367 36.4829 56.8426 36.4868 56.8474 36.4918C56.8249 36.5156 56.7975 36.5373 56.7729 36.5607C56.6635 36.5905 56.5793 36.692 56.43 36.613C56.4159 36.6502 56.3931 36.6835 56.3636 36.7101C56.3399 36.7209 56.317 36.7334 56.2952 36.7476C56.2257 36.7597 56.1542 36.7488 56.0915 36.7165C55.9671 36.9332 55.4386 36.8333 55.0711 36.8998C55.0353 36.957 55.1355 36.9638 55.115 37.0154C54.9496 37.0754 54.8542 36.994 54.6807 36.9803C54.704 37.1704 54.1011 36.957 53.8101 36.9751C53.9646 36.9332 53.635 36.8535 53.5553 36.8289C53.5239 36.8837 53.6442 36.8825 53.6768 36.9151C53.6412 36.925 53.6038 36.9273 53.5672 36.9218C53.5306 36.9164 53.4956 36.9034 53.4643 36.8837C53.4848 36.8555 53.4816 36.8345 53.4631 36.8192C53.4884 36.7294 53.5995 36.8688 53.6185 36.7604C53.5609 36.7637 53.4442 36.7234 53.5508 36.6984C53.1091 36.5028 52.689 36.2615 52.2974 35.9783C52.4788 36.1561 52.6745 36.3186 52.8827 36.464C52.2732 36.2837 51.7506 35.8869 51.4131 35.348C51.1358 35.1209 50.8105 35.1096 50.6994 34.7334L50.6974 34.7399C50.6781 34.6456 50.5469 34.5913 50.6701 34.5139C50.8121 34.8283 51.0428 35.0944 51.3338 35.2795C51.3358 35.2821 51.3375 35.2848 51.339 35.2876L51.3398 35.2836C51.3547 35.2932 51.372 35.3017 51.3869 35.3114C51.3931 35.3168 51.3986 35.3229 51.4034 35.3295C51.4023 35.3255 51.401 35.3216 51.3994 35.3178C51.5296 35.3927 51.6714 35.4455 51.8188 35.4741C51.5065 35.2099 51.0533 34.9316 50.9353 34.5723C50.9774 34.6377 51.0338 34.6925 51.1003 34.7328C51.1668 34.7731 51.2415 34.7977 51.3189 34.8047C51.2787 34.7189 51.174 34.6956 51.141 34.6009C51.1752 34.5981 51.1869 34.6432 51.201 34.6009C50.9666 34.3716 50.7847 34.0942 50.6678 33.7878C50.551 33.4814 50.5019 33.1532 50.524 32.826C50.5721 33.074 50.641 33.3174 50.73 33.5538C50.6319 33.0849 50.5824 32.6071 50.5823 32.1281C50.5163 32.2122 50.5284 32.0906 50.5533 32.0403C50.4479 32.0121 50.5292 32.1712 50.4358 32.1571C50.4298 32.1337 50.4125 32.1232 50.377 32.1281C50.3718 32.0919 50.3744 32.055 50.3845 32.0198C50.3946 31.9847 50.4121 31.9521 50.4358 31.9243C50.4523 31.9662 50.402 32.0749 50.4644 32.0697C50.4752 31.9875 50.5384 31.6573 50.4358 31.7789C50.5731 31.5239 50.6226 30.8928 50.788 30.9923C50.8472 30.83 50.8113 30.7108 50.9353 30.5859C50.9909 30.5888 50.9562 30.6826 51.0235 30.6729C51.2368 30.3701 51.3612 29.8513 51.6115 29.8296C51.616 29.6677 51.6739 29.5606 51.8486 29.567C51.8333 29.3503 52.0479 29.3584 52.0825 29.19C51.8993 29.1635 51.9138 29.3326 51.789 29.364C51.8466 29.188 52.0173 29.1248 52.0531 28.9278C51.9456 28.9278 52.0112 29.0978 51.8784 29.072C51.8812 29.0386 51.9299 29.0072 51.8784 28.9854C51.4249 29.418 51.0288 29.907 50.6998 30.4406C50.7506 30.1876 51.0887 29.9154 51.0834 29.7998C51.052 29.8401 50.9663 29.9722 50.9353 29.9166C51.6264 29.0809 52.4785 28.1477 53.6414 27.9673C53.5508 28.0325 53.3894 28.0281 53.3476 28.1417C53.4341 28.1497 53.4373 28.0764 53.5239 28.0837C53.521 28.1578 53.41 28.1248 53.4059 28.2001C53.5347 28.2069 53.6949 28.0168 53.7585 28.1417C53.372 28.2382 53.0108 28.4169 52.6995 28.6657C52.9391 28.5091 53.2113 28.4094 53.4953 28.3745C53.445 28.4502 53.4144 28.4268 53.4059 28.5783C53.7324 28.569 54.1192 28.2975 54.5535 28.3745C54.1872 28.4251 53.836 28.5539 53.5239 28.7522C53.249 28.9093 52.7257 29.1965 52.642 29.1308C51.9613 29.5843 51.2147 30.2404 50.9643 31.1091C50.9038 31.3173 50.8743 31.5331 50.8766 31.7499C50.883 31.7104 50.8927 31.6709 50.9019 31.6335L50.9047 31.6254C50.9679 31.4023 51.0911 31.1788 51.1623 30.9754C51.1646 30.9696 51.1671 30.964 51.17 30.9585C51.1772 30.9315 51.1849 30.9057 51.1917 30.88C51.1937 30.8723 51.1961 30.8634 51.199 30.8554H51.1974C51.1989 30.8527 51.2001 30.8499 51.201 30.8469C51.2009 30.8487 51.2005 30.8505 51.1996 30.8521C51.1988 30.8537 51.1976 30.8551 51.1961 30.8562C51.1961 30.859 51.1941 30.8594 51.1937 30.8606L51.1901 30.8642L51.1861 30.8655C51.1841 30.8663 51.1821 30.8655 51.1792 30.8642L51.1772 30.8626C51.1741 30.8579 51.1722 30.8525 51.1716 30.8469C51.3463 30.6097 51.3857 30.3906 51.5524 30.1776C51.6019 30.1788 51.5701 30.2597 51.6115 30.265C51.7524 29.8421 52.2064 29.7281 52.4057 29.364C52.4101 29.3987 52.4145 29.4317 52.4653 29.4216C53.4808 28.6403 55.3356 28.221 56.6409 28.898C56.7879 29.0024 56.9256 29.1194 57.0523 29.2476C57.2097 29.1912 57.0426 29.3044 57.1996 29.2476C57.9479 29.9273 58.4453 30.8397 58.6112 31.8373C58.6362 31.9718 58.6543 32.1063 58.6676 32.2384C58.6708 32.267 58.6708 32.296 58.6732 32.3254C58.6808 32.4257 58.6881 32.526 58.6901 32.6251C58.6901 32.6472 58.6893 32.6681 58.6893 32.6899Z" fill="#00893C"/>
<path d="M69.3475 35.3745L69.3463 35.3717L69.2171 35.24C68.7814 35.8371 68.1678 36.2807 67.4644 36.5072C66.7611 36.7336 66.0041 36.7313 65.3021 36.5006C64.6001 36.2699 63.9893 35.8225 63.5572 35.2228C63.125 34.6231 62.8939 33.9018 62.897 33.1625C62.9 32.4232 63.1371 31.7038 63.5741 31.1077C64.0111 30.5116 64.6257 30.0693 65.3295 29.8443C66.0334 29.6194 66.7904 29.6233 67.4919 29.8556C68.1933 30.0879 68.8032 30.5365 69.234 31.1372L70.353 29.9189C69.6815 29.1018 68.7739 28.5124 67.7546 28.2314C66.7353 27.9504 65.6541 27.9916 64.6591 28.3492C63.6641 28.7069 62.8039 29.3636 62.1963 30.2294C61.5887 31.0951 61.2635 32.1277 61.2651 33.1856C61.2668 34.2434 61.5952 35.275 62.2055 36.1389C62.8157 37.0028 63.6779 37.6568 64.674 38.0113C65.6702 38.3659 66.7515 38.4037 67.7699 38.1196C68.7883 37.8354 69.6941 37.2432 70.3631 36.424L70.0089 36.0584L69.3475 35.3745Z" fill="#00893C"/>
</svg>
